# ProBuilder 5.2.3
# https://unity3d.com/unity/features/worldbuilding/probuilder
# 21.11.2024 21:32:09

mtllib ./Platform_lang.mtl
o Platform_lang

g Platform_lang (2)
v 15.11678 0 2.572849
v 2.861023E-06 0 2.57285
v 15.11678 1.51434 2.572849
v 2.861023E-06 1.51434 2.57285
v 2.861023E-06 0 1.907349E-06
v 2.861023E-06 1.51434 1.907349E-06
v 15.11678 0 4.768372E-07
v 15.11678 1.51434 4.768372E-07

vt 15.11678 0
vt 2.779866E-06 0
vt 15.11678 1.51434
vt 2.779866E-06 1.51434
vt 2.57285 0
vt 2.57285 1.51434
vt -15.11678 0
vt -15.11678 1.51434
vt -2.572855 0
vt -2.572855 1.51434
vt -15.11678 2.572849
vt -2.861023E-06 2.57285
vt 15.11678 2.572849

vn 3.154357E-08 0 1
vn -1 0 0
vn -9.46307E-08 0 -1
vn 1 0 -3.706686E-07
vn 0 1 0
vn 0 -1 0

usemtl GreyboxProBuilder_Default_URP
f 3/3/1 4/4/1 2/2/1 1/1/1
f 4/6/2 6/4/2 5/2/2 2/5/2
f 6/4/3 8/8/3 7/7/3 5/2/3
f 8/4/4 3/10/4 1/9/4 7/2/4
f 8/7/5 6/2/5 4/12/5 3/11/5
f 1/13/6 2/12/6 5/2/6 7/1/6

